<svg width="105" height="113" viewBox="0 0 105 113" fill="none" xmlns="http://www.w3.org/2000/svg">
<path d="M4 25.2577H101M4 25.2577L14.9847 93.8465C16.383 102.578 23.9159 109 32.7582 109H74.2777C83.3194 109 90.958 102.293 92.1267 93.3268L101 25.2577M4 25.2577V23.5951C4 19.1768 7.58172 15.5951 12 15.5951H42.0514M101 25.2577V23.5951C101 19.1768 97.4183 15.5951 93 15.5951H67.627M35.5016 37.4969V98.0491M55.1511 37.4969V98.0491M73.5531 37.4969V98.0491M42.0514 15.5951V15C42.0514 8.92487 46.9763 4 53.0514 4H56.627C62.7021 4 67.627 8.92487 67.627 15V15.5951M42.0514 15.5951H67.627" stroke="black" stroke-width="8"/>
</svg>
