<svg width="77" height="102" viewBox="0 0 77 102" fill="none" xmlns="http://www.w3.org/2000/svg">
<path d="M38 44.5L29.5 54.5V75.5L38 87.5L45.5 75.5V54.5L38.6493 45.3658M38 44.5L32 36.5L33.4118 34.5M38 44.5L43 36.5L41.8235 34.5M38 44.5L47 36.5L58.5 33.5H72.5L52 44.5H38ZM38 44.5L27 36.5L19.5 33.5H5L21.5 44.5H38ZM38 44.5L19.5 47.5L6 59.5L5 69.5L16.5 67.5L38 44.5ZM38 44.5L56 47.5L70.5 59.5L72.5 69.5L58.5 67.5L38.6493 45.3658M38 44.5L38.6493 45.3658M32 58.5H43M32 66H43M32 73.5H43M33.4118 34.5L34.1176 33.5L36.5882 30M33.4118 34.5L32.5 31L36.5882 30M36.5882 30L38 28L39.1765 30M41.8235 34.5L43 31L39.1765 30M41.8235 34.5L39.1765 30M15 19H60.6457M15 12.5H60.6457M1 1V101H76V22.9355L60.6457 1H1ZM12 19V19.5C12 20.0523 11.5523 20.5 11 20.5C10.4477 20.5 10 20.0523 10 19.5V19C10 18.4477 10.4477 18 11 18C11.5523 18 12 18.4477 12 19ZM11 13.5V13.5C11.5523 13.5 12 13.0523 12 12.5V12C12 11.4477 11.5523 11 11 11V11C10.4477 11 10 11.4477 10 12V12.5C10 13.0523 10.4477 13.5 11 13.5Z" stroke="black" stroke-width="2"/>
</svg>
