<svg width="59" height="71" viewBox="0 0 59 71" fill="none" xmlns="http://www.w3.org/2000/svg">
<path d="M11 25V24.5C11 23.3954 11.8954 22.5 13 22.5H43C44.1046 22.5 45 23.3954 45 24.5V25C45 26.1046 44.1046 27 43 27H32.5C31.3954 27 30.5 27.8954 30.5 29V64.5C30.5 65.6046 29.6046 66.5 28.5 66.5H27C25.8954 66.5 25 65.6046 25 64.5V29C25 27.8954 24.1046 27 23 27H13C11.8954 27 11 26.1046 11 25Z" fill="black"/>
<path d="M41.5 57L38.3998 51.9621C37.9407 51.2161 36.9054 51.0946 36.2861 51.7139C35.829 52.171 35.7581 52.8871 36.1166 53.425L39.5 58.5L36.2657 62.5429C35.8298 63.0878 35.8733 63.8733 36.3667 64.3667C36.9618 64.9618 37.9477 64.8844 38.4427 64.2039L41.5 60L43.2195 63.7828C43.5971 64.6137 44.6884 64.8116 45.3338 64.1662C45.7316 63.7684 45.8303 63.1606 45.5787 62.6573L43.5 58.5L46.4957 52.9366C46.7856 52.3982 46.6382 51.7287 46.149 51.3618C45.5442 50.9081 44.6775 51.0989 44.3191 51.7646L41.5 57Z" fill="black"/>
<path d="M15 14H49.5M15 18.5H49.5M1 0.5V70H58V6L53.5 0.5H1ZM19 7C19.5523 6.44772 19.5523 5.55228 19 5C18.4477 4.44772 17.5523 4.44772 17 5C16.4477 5.55228 16.4477 6.44772 17 7C17.5523 7.55228 18.4477 7.55228 19 7ZM25.5 7C26.0523 6.44772 26.0523 5.55228 25.5 5C24.9477 4.44772 24.0523 4.44772 23.5 5C22.9477 5.55228 22.9477 6.44772 23.5 7C24.0523 7.55228 24.9477 7.55228 25.5 7ZM31.5 7C32.0523 6.44772 32.0523 5.55228 31.5 5C30.9477 4.44772 30.0523 4.44772 29.5 5C28.9477 5.55228 28.9477 6.44772 29.5 7C30.0523 7.55228 30.9477 7.55228 31.5 7ZM37.5 7C38.0523 6.44772 38.0523 5.55228 37.5 5C36.9477 4.44772 36.0523 4.44772 35.5 5C34.9477 5.55228 34.9477 6.44772 35.5 7C36.0523 7.55228 36.9477 7.55228 37.5 7ZM49.5 7C50.0523 6.44772 50.0523 5.55228 49.5 5C48.9477 4.44772 48.0523 4.44772 47.5 5C46.9477 5.55228 46.9477 6.44772 47.5 7C48.0523 7.55228 48.9477 7.55228 49.5 7ZM43.5 7C44.0523 6.44772 44.0523 5.55228 43.5 5C42.9477 4.44772 42.0523 4.44772 41.5 5C40.9477 5.55228 40.9477 6.44772 41.5 7C42.0523 7.55228 42.9477 7.55228 43.5 7ZM11.75 18.75V18.75C11.6119 18.8881 11.3881 18.8881 11.25 18.75V18.75C11.1119 18.6119 11.1119 18.3881 11.25 18.25V18.25C11.3881 18.1119 11.6119 18.1119 11.75 18.25V18.25C11.8881 18.3881 11.8881 18.6119 11.75 18.75ZM12.5 7V7C11.9477 7.55228 11.0523 7.55228 10.5 7V7C9.94772 6.44772 9.94772 5.55228 10.5 5V5C11.0523 4.44772 11.9477 4.44772 12.5 5V5C13.0523 5.55228 13.0523 6.44772 12.5 7ZM11.25 13.75V13.75C11.1119 13.8881 11.1119 14.1119 11.25 14.25V14.25C11.3881 14.3881 11.6119 14.3881 11.75 14.25V14.25C11.8881 14.1119 11.8881 13.8881 11.75 13.75V13.75C11.6119 13.6119 11.3881 13.6119 11.25 13.75Z" stroke="black"/>
</svg>
