<svg width="87" height="89" viewBox="0 0 87 89" fill="none" xmlns="http://www.w3.org/2000/svg">
<rect x="4" y="4" width="79" height="81" rx="26" stroke="black" stroke-width="8"/>
<path d="M46.3333 74H43C40.2386 74 38 71.7614 38 69V51.6923H20C17.2386 51.6923 15 49.4537 15 46.6923V42.6213C15 39.8599 17.2386 37.6213 20 37.6213H38V21C38 18.2386 40.2386 16 43 16H46.3333C49.0948 16 51.3333 18.2386 51.3333 21V37.6213H68C70.7614 37.6213 73 39.8599 73 42.6213V46.6923C73 49.4537 70.7614 51.6923 68 51.6923H51.3333V69C51.3333 71.7614 49.0948 74 46.3333 74Z" fill="white" stroke="black" stroke-width="8"/>
</svg>
