<svg width="130" height="130" viewBox="0 0 130 130" fill="none" xmlns="http://www.w3.org/2000/svg">
<rect x="4" y="4" width="122" height="122" rx="26" stroke="black" stroke-width="8"/>
<path d="M71.5 107.5H61.5C58.7386 107.5 56.5 105.261 56.5 102.5V75H27C24.2386 75 22 72.7614 22 70V59.5C22 56.7386 24.2386 54.5 27 54.5H56.5V28C56.5 25.2386 58.7386 23 61.5 23H71.5C74.2614 23 76.5 25.2386 76.5 28V54.5H104C106.761 54.5 109 56.7386 109 59.5V70C109 72.7614 106.761 75 104 75H76.5V102.5C76.5 105.261 74.2614 107.5 71.5 107.5Z" fill="white" stroke="black" stroke-width="8"/>
</svg>
